ply
format ascii 1.0
comment Created by Open Asset Import Library - http://assimp.sf.net (v5.0.0)
element vertex 8
property float x
property float y
property float z
property uchar red
property uchar green
property uchar blue
property uchar alpha
element face 12
property list uchar int vertex_index
end_header
-0.75597 0.45092833 0.45092833 255 0 0 255
0 0 1 255 0 0 255
0 1 1 255 0 0 255
0 1 0 255 0 0 255
1 0 0 0 0 255 255
0.78298771 0.43402457 1.7535334 0 0 255 255
1 1 1 0 0 255 255
1 1 0 0 0 255 255
3 0 1 2
3 0 2 3
3 7 6 5
3 7 5 4
3 1 0 4
3 1 4 5
3 1 5 6
3 1 6 2
3 2 6 7
3 2 7 3
3 3 7 4
3 3 4 0
